<svg width="24" height="24" viewBox="0 0 24 24" fill="none" xmlns="http://www.w3.org/2000/svg">
<g id="ai-cut">
<g id="fill1">
<path d="M5 9.5C3.34315 9.5 2 8.15685 2 6.5C2 4.84315 3.34315 3.5 5 3.5C6.65685 3.5 8 4.84315 8 6.5C8 8.15685 6.65685 9.5 5 9.5Z" fill="white"/>
<path d="M8 17.5C8 19.1569 6.65685 20.5 5 20.5C3.34315 20.5 2 19.1569 2 17.5C2 15.8431 3.34315 14.5 5 14.5C6.65685 14.5 8 15.8431 8 17.5Z" fill="white"/>
</g>
<path id="stroke1" d="M20 5.80769L7.5 15.5001M7.5 8.5L15.5 14.5577M5 9.5C3.34315 9.5 2 8.15685 2 6.5C2 4.84315 3.34315 3.5 5 3.5C6.65685 3.5 8 4.84315 8 6.5C8 8.15685 6.65685 9.5 5 9.5ZM8 17.5C8 19.1569 6.65685 20.5 5 20.5C3.34315 20.5 2 19.1569 2 17.5C2 15.8431 3.34315 14.5 5 14.5C6.65685 14.5 8 15.8431 8 17.5Z" stroke="black" stroke-width="2" stroke-linecap="square"/>
<path id="stroke2" d="M19.25 17L19.7697 18.2303L21 18.75L19.7697 19.2697L19.25 20.5L18.7303 19.2697L17.5 18.75L18.7303 18.2303L19.25 17Z" stroke="black" stroke-width="2"/>
</g>
</svg>
