<svg width="24" height="25" viewBox="0 0 24 25" fill="none" xmlns="http://www.w3.org/2000/svg">
<g id="ai-education">
<path id="fill1" d="M6 17.5699V11.1699L12 15.0699L18 11.1699V17.5699C18 19.5029 15.3137 21.0699 12 21.0699C8.68629 21.0699 6 19.5029 6 17.5699Z" fill="white"/>
<path id="stroke1" d="M6 11.6698V17.5698C6 19.5028 8.68629 21.0698 12 21.0698C15.3137 21.0698 18 19.5028 18 17.5698V11.6698M21 9.46982V15.0698M2.3125 8.3667L2 8.56982L12 15.0698L22 8.56982L12 2.06982L11.6875 2.27295" stroke="black" stroke-width="2" stroke-linecap="square"/>
<path id="stroke2" d="M6.25 2.56982L6.76972 3.8001L8 4.31982L6.76972 4.83955L6.25 6.06982L5.73028 4.83955L4.5 4.31982L5.73028 3.8001L6.25 2.56982Z" stroke="black" stroke-width="2"/>
</g>
</svg>
