<svg width="24" height="24" viewBox="0 0 24 24" fill="none" xmlns="http://www.w3.org/2000/svg">
<g id="component-steps-1">
<path id="stroke2" d="M6 15V9M6 15C4.34315 15 3 16.3431 3 18C3 19.6569 4.34315 21 6 21C7.65685 21 9 19.6569 9 18C9 16.3431 7.65685 15 6 15ZM6 9C4.34315 9 3 7.65685 3 6C3 4.34314 4.34315 3 6 3C7.65686 3 9 4.34315 9 6C9 7.65685 7.65685 9 6 9Z" stroke="black" stroke-width="2" stroke-linecap="square"/>
<path id="stroke1" d="M21 5L13 5M21 12H13M21 19H13" stroke="black" stroke-width="2" stroke-linecap="square"/>
</g>
</svg>
