<svg width="24" height="24" viewBox="0 0 24 24" fill="none" xmlns="http://www.w3.org/2000/svg">
<g id="discount-list">
<path id="fill1" fill-rule="evenodd" clip-rule="evenodd" d="M20.7881 2.75391L21.4062 10.793L10.9746 21.2246L2.48926 12.7393L13.0684 2.16016L20.7881 2.75391ZM16.5449 6.99609C15.7639 6.21516 14.4978 6.21518 13.7168 6.99609C12.9358 7.77712 12.9358 9.04316 13.7168 9.82422C14.4978 10.6053 15.7639 10.6053 16.5449 9.82422C17.3259 9.04316 17.3259 7.77711 16.5449 6.99609Z" fill="white"/>
<path id="stroke2" d="M22 17H20M22 21H16" stroke="black" stroke-width="2" stroke-linecap="square"/>
<g id="stroke1">
<path d="M10.9746 21.2249L2.48932 12.7396L13.0686 2.1604L20.7882 2.75422L21.4065 10.793L10.9746 21.2249Z" stroke="black" stroke-width="2"/>
<path d="M13.7166 6.99613C14.4977 6.21508 15.764 6.21508 16.545 6.99613C17.3261 7.77717 17.3261 9.0435 16.545 9.82455C15.764 10.6056 14.4977 10.6056 13.7166 9.82455C12.9356 9.0435 12.9356 7.77717 13.7166 6.99613Z" stroke="black" stroke-width="2"/>
</g>
</g>
</svg>
