<svg width="24" height="24" viewBox="0 0 24 24" fill="none" xmlns="http://www.w3.org/2000/svg">
<g id="draft">
<path id="fill1" d="M12 17C13.8638 17 15.4299 15.7252 15.874 14H22V21H2V14H8.12602C8.57006 15.7252 10.1362 17 12 17Z" fill="white"/>
<path id="fill2" d="M12 17C13.8638 17 15.4299 15.7252 15.874 14L20 14V3H4V14L8.12602 14C8.57006 15.7252 10.1362 17 12 17Z" fill="white"/>
<path id="stroke1" d="M4 14V3H20V14M15.874 14C15.4299 15.7252 13.8638 17 12 17C10.1362 17 8.57006 15.7252 8.12602 14H2V21H22V14H15.874Z" stroke="black" stroke-width="2" stroke-linecap="square"/>
<path id="stroke2" d="M8 7H16M8 11H12" stroke="black" stroke-width="2" stroke-linecap="square"/>
</g>
</svg>
