<svg width="24" height="24" viewBox="0 0 24 24" fill="none" xmlns="http://www.w3.org/2000/svg">
<g id="file-yaml">
<path id="stroke2" d="M5 13L5 14.0017C5 14.047 4.98745 14.0912 4.96414 14.1278L3.5 16.4286M2 13V14.0017C2 14.047 2.01256 14.0912 2.03586 14.1278L3.5 16.4286M3.5 16.4286V19M7.5 16V13.4286C7.5 13.1919 7.66789 13 7.875 13L10.125 13C10.3321 13 10.5 13.1919 10.5 13.4286V16M7.5 16V19M7.5 16H10.5M10.5 16V19M18.0715 19V13.4286C18.0715 13.1919 17.9116 13 17.7144 13H15.5715M15.5715 13L15.5715 19M15.5715 13H13.0715V19M20.5 13V18.5714C20.5 18.8081 20.6919 19 20.9286 19H21.5" stroke="black" stroke-width="2" stroke-linecap="square"/>
<path id="stroke1" d="M20 10V7L15 2H4L4 10M4 22H20M14 2V8H20" stroke="black" stroke-width="2" stroke-linecap="square"/>
</g>
</svg>
