<svg width="24" height="24" viewBox="0 0 24 24" fill="none" xmlns="http://www.w3.org/2000/svg">
<g id="image-carousel">
<path id="fill1" d="M21 3H3V17H21V3Z" fill="white"/>
<g id="fill2">
<path d="M3 13.3636L8.29412 9L18 17H3V13.3636Z" fill="white"/>
<path d="M17.5556 7.77778C17.5556 8.75962 16.7596 9.55556 15.7778 9.55556C14.7959 9.55556 14 8.75962 14 7.77778C14 6.79594 14.7959 6 15.7778 6C16.7596 6 17.5556 6.79594 17.5556 7.77778Z" fill="white"/>
</g>
<path id="stroke1" d="M3 13.7273V13.3636L8.29412 9L18 17M3 3H21V17H3V3ZM17.5556 7.77778C17.5556 8.75962 16.7596 9.55556 15.7778 9.55556C14.7959 9.55556 14 8.75962 14 7.77778C14 6.79594 14.7959 6 15.7778 6C16.7596 6 17.5556 6.79594 17.5556 7.77778Z" stroke="black" stroke-width="2"/>
<path id="stroke2" d="M3 21H6M10 21H14M18 21L21 21" stroke="black" stroke-width="2" stroke-linecap="square"/>
</g>
</svg>
