<svg width="24" height="24" viewBox="0 0 24 24" fill="none" xmlns="http://www.w3.org/2000/svg">
<g id="korean-rectangle">
<path id="fill1" d="M22 4V20H2L2 4L22 4Z" fill="white"/>
<path id="stroke1" d="M22 4V20L2 20L2 4L22 4Z" stroke="black" stroke-width="2"/>
<path id="stroke2" d="M14 12V9H17.5294C17.6594 9 17.7647 9.09594 17.7647 9.21429V11.7857C17.7647 11.9041 17.6594 12 17.5294 12H14ZM14 12V15M18 15V14.4565C18 14.3935 17.9695 14.3337 17.9167 14.2929L15.5744 12.488L15.4792 12.4146M6 15V9M10 15V14.2531C10 14.1839 9.95544 14.119 9.88035 14.0788L6.5355 12.1531M10 9V9.74687C10 9.81607 9.95544 9.88102 9.88035 9.92124L6.5355 11.8469" stroke="black" stroke-width="2" stroke-linecap="square"/>
</g>
</svg>
