<svg width="24" height="24" viewBox="0 0 24 24" fill="none" xmlns="http://www.w3.org/2000/svg">
<path d="M17.5 21H11V19H18.7227L17.5 21Z" fill="black"/>
<path d="M9 21H6.5L5.27734 19H9V21Z" fill="black"/>
<path d="M17 17H9V15H17V17Z" fill="black"/>
<path d="M19.9443 17H19V15H21.167L19.9443 17Z" fill="black"/>
<path d="M7 17H4.05566L2.83301 15H7V17Z" fill="black"/>
<path d="M23 12L22.3887 13H14V11H22.3887L23 12Z" fill="black"/>
<path d="M12 13H1.61133L1 12L1.61133 11H12V13Z" fill="black"/>
<path d="M21.167 9H2.83301L4.05566 7H19.9443L21.167 9Z" fill="black"/>
<path d="M18.7227 5H16V3H17.5L18.7227 5Z" fill="black"/>
<path d="M14 5H5.27734L6.5 3H14V5Z" fill="black"/>
</svg>
