<svg width="24" height="24" viewBox="0 0 24 24" fill="none" xmlns="http://www.w3.org/2000/svg">
<g id="superscript">
<path id="stroke1" d="M9 12.7352L4.01 20H4L9 12.7352ZM9 12.7352L10 11.2793M10 11.2793L15 4H14.99L10 11.2793ZM10 12.7352L14.99 20H15L10 12.7352ZM10 12.7352L8.98605 11.259M8.98605 11.259L4 4H4.01L8.98605 11.259Z" stroke="black" stroke-width="2" stroke-linecap="square"/>
<path id="stroke2" d="M19.25 2H21.5C21.7761 2 22 2.22386 22 2.5V4C22 4.27614 21.7761 4.5 21.5 4.5H19.5C19.2239 4.5 19 4.72386 19 5V7H21.75" stroke="black" stroke-width="2" stroke-linecap="square"/>
</g>
</svg>
