<svg width="24" height="24" viewBox="0 0 24 24" fill="none" xmlns="http://www.w3.org/2000/svg">
<g id="tag-state">
<path id="fill1" d="M23 4L1 4L1 20L23 20L23 4Z" fill="white"/>
<path id="stroke1" d="M23 4L1 4L1 20L23 20L23 4Z" stroke="black" stroke-width="2" stroke-linecap="square"/>
<path id="stroke2" d="M6 12L6 9C6 8.44771 6.44772 8 7 8L9 8C9.55228 8 10 8.44771 10 9V12M6 12L6 16M6 12H10M10 12V16M14 12V8H17C17.5523 8 18 8.44772 18 9V12M14 12H18M14 12V16H17C17.5523 16 18 15.5523 18 15V12" stroke="black" stroke-width="2" stroke-linecap="square"/>
</g>
</svg>
