<svg width="24" height="24" viewBox="0 0 24 24" fill="none" xmlns="http://www.w3.org/2000/svg">
<g id="thumb-up-2">
<path id="fill1" d="M7.5 11.1L11.1 2.5L12.0279 2.78461C13.2262 3.15211 14.0344 4.18389 14.0344 5.34605V9.30002H19.3259C20.6581 9.30002 21.6768 10.3926 21.4743 11.6041L20.1868 19.3041C20.0237 20.2798 19.1113 21 18.0384 21H7.5V11.1Z" fill="white"/>
<path id="fill2" d="M7.5 11.0996V20.9996H3V11.0996H7.5Z" fill="white"/>
<path id="stroke1" d="M7.5 11.1V21M7.5 11.1L11.1 2.5L12.0279 2.78461C13.2262 3.15211 14.0344 4.18389 14.0344 5.34605V9.30002H19.3259C20.6581 9.30002 21.6768 10.3926 21.4743 11.6041L20.1868 19.3041C20.0237 20.2798 19.1113 21 18.0384 21H7.5M7.5 11.1H3V21H7.5" stroke="black" stroke-width="2" stroke-linecap="square"/>
</g>
</svg>
