<svg width="44" height="43" viewBox="0 0 44 43" fill="none" xmlns="http://www.w3.org/2000/svg">
<path fill-rule="evenodd" clip-rule="evenodd" d="M32.082 7.29675C34.0833 7.29675 35.7111 5.66907 35.7111 3.66831V3.62995C35.7111 1.62919 34.0833 0.00150433 32.082 0.00150433L21.8097 0C19.3088 0.0191802 12.9019 0.605117 7.44786 5.61266C1.08196 11.4581 0.552281 19.1501 0.541748 21.3686C0.541748 23.372 2.17254 25.002 4.17688 25.002H4.21525C6.2196 25.002 7.85039 23.372 7.85039 21.3683C7.84888 19.6898 8.21304 15.3916 11.6221 11.7436C15.4348 7.66419 20.3836 7.30841 21.8093 7.29675H32.082Z" fill="#FF5226"/>
<path fill-rule="evenodd" clip-rule="evenodd" d="M43.1262 21.32V21.2812C43.1262 19.2775 41.4958 17.6475 39.4911 17.6475L30.6069 17.6284C29.0935 17.6374 25.2214 17.9977 21.9722 21.135C20.4031 22.6502 19.2923 24.5103 18.6704 26.6645C18.3424 27.8018 18.1592 29.027 18.1558 30.1147V37.4991V38.9094V39.3494C18.1558 41.3656 19.7907 43 21.8075 43C23.8242 43 25.4595 41.3656 25.4595 39.3494V39.0023C25.4603 38.971 25.464 38.9406 25.464 38.9094V30.1147C25.4652 29.4787 25.6119 27.8533 26.9444 26.4922C28.3415 25.0658 30.1006 24.9394 30.6066 24.9345L39.4915 24.9537C41.4958 24.9537 43.1262 23.3238 43.1262 21.32" fill="#FF5226"/>
<mask id="mask0_23_61" style="mask-type:luminance" maskUnits="userSpaceOnUse" x="0" y="33" width="9" height="10">
<path fill-rule="evenodd" clip-rule="evenodd" d="M0 33.9501H8.67745V42.6252H0V33.9501Z" fill="white"/>
</mask>
<g mask="url(#mask0_23_61)">
<path fill-rule="evenodd" clip-rule="evenodd" d="M4.33884 33.9501C1.9425 33.9501 -0.000152588 35.8922 -0.000152588 38.2879C-0.000152588 40.6831 1.9425 42.6252 4.33884 42.6252C6.73517 42.6252 8.67745 40.6831 8.67745 38.2879C8.67745 35.8922 6.73517 33.9501 4.33884 33.9501" fill="#FF5226"/>
</g>
<path fill-rule="evenodd" clip-rule="evenodd" d="M39.5985 33.9501C37.2021 33.9501 35.2595 35.8922 35.2595 38.2879C35.2595 40.6831 37.2021 42.6252 39.5985 42.6252C41.9948 42.6252 43.9371 40.6831 43.9371 38.2879C43.9371 35.8922 41.9948 33.9501 39.5985 33.9501" fill="#FF5226"/>
</svg>
